<svg width="371" height="275" viewBox="0 0 371 275" fill="none" xmlns="http://www.w3.org/2000/svg">
<path d="M98.7022 71.0127C98.7022 72.7532 98.5284 74.7838 98.1808 77.1044C97.8333 79.3671 97.341 81.7748 96.7038 84.3275C96.1246 86.8223 95.4295 89.404 94.6185 92.0728C93.8655 94.7416 93.0546 97.3233 92.1857 99.818C91.3169 102.255 90.4191 104.546 89.4923 106.693C88.6234 108.782 87.7835 110.551 86.9726 112.002C86.625 112.582 86.0748 113.191 85.3218 113.829C84.6267 114.409 83.9026 115.047 83.1496 115.744C82.3966 116.382 81.7305 117.02 81.1512 117.658C80.572 118.296 80.2824 118.906 80.2824 119.486C79.819 119.544 79.095 119.689 78.1102 119.921C77.1255 120.095 76.0829 120.356 74.9824 120.704C73.9397 120.994 72.955 121.342 72.0282 121.748C71.1594 122.097 70.6381 122.445 70.4643 122.793C69.8271 124.011 69.4217 124.823 69.2479 125.229C69.1321 125.636 68.9873 125.897 68.8135 126.013C68.6397 126.071 68.2922 126.1 67.7709 126.1C67.3075 126.042 66.3807 126.158 64.9905 126.448C64.4692 126.564 63.8031 126.738 62.9921 126.97C62.2391 127.202 61.4282 127.434 60.5593 127.666C59.7484 127.898 58.9664 128.072 58.2134 128.188C57.4604 128.362 56.8522 128.449 56.3888 128.449C55.1145 128.449 53.8691 128.246 52.6527 127.84C51.4943 127.434 50.2779 127.231 49.0035 127.231C48.1926 127.231 47.4686 127.347 46.8314 127.579C44.6882 128.391 42.6319 128.972 40.6625 129.32C38.751 129.668 36.6368 129.842 34.3199 129.842L22.069 128.188C21.1422 128.42 20.2154 128.565 19.2886 128.623C18.3618 128.739 17.4351 128.797 16.5083 128.797C15.3498 128.797 14.1913 128.739 13.0329 128.623C11.9323 128.507 10.8028 128.362 9.64431 128.188C9.47054 127.318 9.18092 126.506 8.77546 125.752C8.42791 124.939 8.08037 124.127 7.73283 123.315C7.38528 122.503 7.0667 121.69 6.77709 120.878C6.48747 120.008 6.34266 119.138 6.34266 118.267C6.34266 116.759 6.71916 115.686 7.47217 115.047C8.22518 114.351 9.18092 113.887 10.3394 113.655C11.4979 113.365 12.7143 113.162 13.9886 113.046C15.3208 112.872 16.5662 112.524 17.7247 112.002C18.8832 111.479 19.8389 110.667 20.5919 109.565C21.3449 108.463 21.7214 106.809 21.7214 104.604C21.7214 103.27 21.6056 101.936 21.3739 100.601C21.2001 99.2669 20.9684 97.9325 20.6788 96.5981C20.4471 95.2057 20.2154 93.8423 19.9837 92.5079C19.8099 91.1735 19.7231 89.8391 19.7231 88.5047C19.7231 87.5185 19.8099 86.5612 19.9837 85.6329C20.1575 84.6466 20.2444 83.6603 20.2444 82.674C20.2444 80.8755 20.0996 79.106 19.8099 77.3655C19.5782 75.567 19.4624 73.7685 19.4624 71.9699C19.4624 69.8813 19.5782 67.8217 19.8099 65.7911C20.0416 63.7025 20.1575 61.6139 20.1575 59.5253C20.1575 57.5527 19.9548 55.6382 19.5493 53.7816C19.2017 51.8671 19.028 49.8945 19.028 47.8639C19.028 46.7616 19.0569 45.6593 19.1149 44.557C19.1728 43.4546 19.2017 42.3523 19.2017 41.25C19.2017 39.9736 19.1438 38.7553 19.028 37.5949C18.9121 36.3766 18.6804 35.1582 18.3329 33.9399C17.9274 32.4895 17.6957 31.068 17.6378 29.6756C17.5799 28.2832 17.4061 27.0359 17.1165 25.9335C16.8269 24.7732 16.2766 23.7869 15.4657 22.9747C14.6547 22.1044 13.2935 21.4662 11.382 21.0601C10.7449 20.9441 10.2525 20.77 9.90497 20.538C9.61535 20.2479 9.32573 19.9868 9.03611 19.7547C8.74649 19.4647 8.36999 19.2036 7.9066 18.9715C7.50113 18.7395 6.86397 18.5654 5.99511 18.4494C3.44647 18.1013 2.17214 16.6799 2.17214 14.1851C2.17214 12.7927 2.4328 11.5744 2.95411 10.5301C3.47543 9.42774 4.14155 8.44146 4.95249 7.5712C5.76342 6.70095 6.66124 5.91772 7.64594 5.22152C8.68857 4.4673 9.70224 3.71308 10.6869 2.95886C12.193 1.79852 13.6121 1.10232 14.9443 0.870253C16.2766 0.580169 17.6957 0.435127 19.2017 0.435127H22.9378C24.6176 0.435127 26.2684 0.37711 27.8903 0.261076C29.5701 0.0870253 31.2499 0 32.9297 0C33.9144 0 34.8991 0.0580169 35.8838 0.174051C36.9264 0.290084 37.9401 0.493143 38.9248 0.783228C39.4461 0.957278 39.9385 1.16034 40.4019 1.39241C40.9232 1.56646 41.4445 1.65348 41.9658 1.65348C42.7767 1.65348 43.4718 1.42141 44.0511 0.957278C44.6303 0.435127 45.1516 0.174051 45.615 0.174051C45.7308 0.174051 45.7888 0.232068 45.7888 0.348101C45.7888 0.464135 45.7598 0.609177 45.7019 0.783228C45.7019 0.899262 45.7019 1.0153 45.7019 1.13133C45.7019 1.47943 45.9336 1.65348 46.397 1.65348C46.6866 1.65348 46.8893 1.47943 47.0052 1.13133C47.1789 0.783228 47.5265 0.55116 48.0478 0.435127C48.4533 0.609177 48.7718 0.812236 49.0035 1.0443C49.2352 1.21835 49.438 1.39241 49.6117 1.56646C49.8434 1.74051 50.1041 1.88555 50.3937 2.00158C50.7413 2.11762 51.1757 2.17563 51.697 2.17563C52.9134 2.17563 54.1298 2.08861 55.3462 1.91456C56.5626 1.68249 57.779 1.56646 58.9954 1.56646C60.5593 1.56646 62.0074 1.82753 63.3397 2.34968C64.6719 2.87184 65.9173 3.53903 67.0758 4.35127C68.2922 5.10549 69.4506 5.97574 70.5512 6.96203C71.6517 7.94831 72.7523 8.90559 73.8528 9.83386C74.6638 10.5301 75.4747 11.0812 76.2856 11.4873C77.1545 11.8354 77.9654 12.2126 78.7184 12.6187C79.4715 12.9668 80.1955 13.4309 80.8906 14.0111C81.5857 14.5332 82.1939 15.3455 82.7152 16.4478C83.2944 17.6661 83.9606 18.8555 84.7136 20.0158C85.5245 21.1181 86.3065 22.2205 87.0595 23.3228C87.8704 24.3671 88.6524 25.4694 89.4054 26.6297C90.1584 27.7321 90.8245 28.9214 91.4038 30.1978C92.8519 33.5047 93.8655 36.9858 94.4448 40.6408C95.0819 44.2379 95.7191 47.8059 96.3562 51.3449C96.6459 52.8534 96.9644 54.3908 97.312 55.9573C97.6595 57.4657 97.8333 58.9742 97.8333 60.4826C97.8333 61.2948 97.6885 62.0781 97.3989 62.8323C97.1093 63.5865 96.9644 64.3697 96.9644 65.182C96.9644 65.7041 97.0513 66.1682 97.2251 66.5744C97.3989 66.9805 97.6016 67.3866 97.8333 67.7927C98.065 68.1988 98.2677 68.663 98.4415 69.1851C98.6153 69.7073 98.7022 70.3165 98.7022 71.0127ZM84.1922 65.182C84.1922 62.9193 83.8737 60.7147 83.2365 58.568C82.5993 56.4214 81.6146 54.4198 80.2824 52.5633C80.9196 51.9251 81.325 51.1709 81.4988 50.3006C81.6726 49.4304 81.7594 48.5891 81.7594 47.7769C81.7594 46.9066 81.7015 46.0364 81.5857 45.1661C81.5278 44.2959 81.4988 43.4546 81.4988 42.6424C81.4988 42.1783 81.325 41.7722 80.9775 41.424C80.6879 41.0759 80.3403 40.7569 79.9348 40.4668C79.5873 40.1187 79.2108 39.7996 78.8053 39.5095C78.3999 39.1614 78.1102 38.7553 77.9365 38.2911C77.7048 37.711 77.531 37.2178 77.4152 36.8117C77.3572 36.3476 77.2993 35.9124 77.2414 35.5063C77.1835 35.1002 77.0676 34.6651 76.8938 34.2009C76.7201 33.7368 76.4305 33.1857 76.025 32.5475C75.7354 32.0833 75.5037 31.6482 75.3299 31.2421C75.1561 30.778 75.0692 30.2268 75.0692 29.5886C75.0692 29.0084 75.1561 28.3993 75.3299 27.7611C75.0982 27.2969 74.7217 26.9198 74.2004 26.6297C73.6791 26.2816 73.0998 26.0206 72.4627 25.8465C71.7676 25.6145 70.9856 25.4404 70.1168 25.3244C69.2479 25.3244 68.3211 25.0633 67.3364 24.5411C66.4096 24.019 65.4249 23.4388 64.3823 22.8006C63.3397 22.1624 62.2681 21.5823 61.1675 21.0601C60.1249 20.538 59.0533 20.2769 57.9528 20.2769C56.273 20.2769 54.6221 20.4219 53.0003 20.712C51.3784 21.0021 49.7276 21.2632 48.0478 21.4953C46.7735 21.6693 45.3833 21.7853 43.8773 21.8434C42.3713 21.8434 40.9521 21.9884 39.6199 22.2785C38.3456 22.5686 37.274 23.1197 36.4051 23.932C35.5363 24.6862 35.1018 25.9045 35.1018 27.587C35.1018 29.6176 35.2177 31.6772 35.4494 33.7658C35.739 35.8544 35.8838 38.0011 35.8838 40.2057C35.8838 44.789 35.6811 49.3724 35.2756 53.9557C34.9281 58.481 34.7543 63.0643 34.7543 67.7057C34.7543 69.8523 34.8701 71.9989 35.1018 74.1456C35.3335 76.2342 35.4494 78.3808 35.4494 80.5854C35.4494 83.4283 35.2177 86.2421 34.7543 89.0269C34.3488 91.8117 34.1461 94.6255 34.1461 97.4684C34.1461 98.6287 34.1461 99.8761 34.1461 101.21C34.1461 102.545 34.2619 103.821 34.4936 105.04C34.7253 106.258 35.1597 107.36 35.7969 108.347C36.4341 109.333 37.3898 110.058 38.6641 110.522C40.4598 111.16 42.2265 111.799 43.9642 112.437C45.7598 113.017 47.6423 113.307 49.6117 113.307C50.7702 113.307 51.8997 113.046 53.0003 112.524C54.1008 111.944 55.2303 111.479 56.3888 111.131C57.1418 110.899 57.9817 110.696 58.9085 110.522C59.8932 110.29 60.849 110.058 61.7757 109.826C62.7025 109.536 63.5714 109.188 64.3823 108.782C65.2512 108.318 65.9752 107.766 66.5545 107.128C67.4233 106.142 68.2632 105.272 69.0741 104.517C69.8851 103.763 71.0146 103.241 72.4627 102.951C73.1578 102.835 73.5922 102.603 73.766 102.255C73.9977 101.849 74.1425 101.413 74.2004 100.949C74.3162 100.427 74.461 99.9051 74.6348 99.3829C74.8086 98.8027 75.1851 98.3096 75.7643 97.9035C76.6911 97.2073 77.3862 96.395 77.8496 95.4668C78.3709 94.5385 78.7474 93.5522 78.9791 92.5079C79.2108 91.4636 79.3846 90.4193 79.5004 89.375C79.6742 88.2727 79.9059 87.1994 80.1955 86.1551C80.8327 83.8344 81.5567 81.4847 82.3676 79.106C83.2365 76.7273 83.6709 74.3196 83.6709 71.8829C83.6709 71.2447 83.5261 70.6936 83.2365 70.2294C82.9469 69.7073 82.8021 69.1271 82.8021 68.4889C82.8021 68.1408 82.86 67.9378 82.9758 67.8797C83.1496 67.7637 83.3234 67.6477 83.4972 67.5316C83.6709 67.3576 83.8157 67.1255 83.9316 66.8354C84.1054 66.5454 84.1922 65.9942 84.1922 65.182Z" fill="#FFD52F"/>
<path d="M194.19 111.741C194.19 112.727 194.016 113.655 193.668 114.525C193.321 115.396 193.002 116.295 192.712 117.223C192.481 118.035 192.307 118.703 192.191 119.225C192.133 119.747 192.017 120.211 191.844 120.617C191.67 120.965 191.38 121.313 190.975 121.661C190.627 121.951 190.048 122.3 189.237 122.706C187.499 123.634 185.646 124.591 183.676 125.578C181.765 126.506 179.824 126.97 177.855 126.97C176.175 126.97 174.582 126.593 173.076 125.839C171.628 125.026 170.267 124.156 168.993 123.228C167.776 122.242 166.647 121.342 165.604 120.53C164.619 119.718 163.78 119.312 163.084 119.312C162.331 119.312 161.665 119.515 161.086 119.921C160.565 120.327 160.015 120.762 159.435 121.226C158.914 121.69 158.306 122.126 157.611 122.532C156.974 122.938 156.163 123.141 155.178 123.141C154.367 123.141 153.527 123.286 152.658 123.576C151.789 123.866 150.92 124.214 150.052 124.62C149.183 124.968 148.285 125.345 147.358 125.752C146.489 126.1 145.678 126.39 144.925 126.622C142.319 127.318 139.683 127.724 137.019 127.84C134.412 127.956 131.777 128.014 129.112 128.014C128.417 128.014 127.345 127.985 125.897 127.927C124.449 127.927 122.972 127.782 121.466 127.492C120.018 127.26 118.715 126.854 117.556 126.274C116.456 125.694 115.906 124.881 115.906 123.837C115.906 123.605 115.934 123.402 115.992 123.228C115.587 123.692 115.124 124.069 114.602 124.359C114.081 124.649 113.502 124.794 112.865 124.794C111.938 124.794 110.808 124.156 109.476 122.88C108.144 121.603 106.869 120.124 105.653 118.441C104.437 116.759 103.394 115.105 102.525 113.481C101.656 111.799 101.222 110.551 101.222 109.739C101.222 109.101 101.396 108.521 101.743 107.998C102.149 107.476 102.351 106.896 102.351 106.258C102.351 105.446 102.236 104.691 102.004 103.995C101.83 103.241 101.743 102.458 101.743 101.646C101.743 100.601 101.946 99.4989 102.351 98.3386C102.757 97.1203 103.249 95.9309 103.828 94.7706C104.408 93.5522 105.016 92.3919 105.653 91.2896C106.29 90.1292 106.869 89.0559 107.391 88.0696C107.97 86.9093 108.781 85.981 109.824 85.2848C110.866 84.5886 111.967 83.9794 113.125 83.4573C114.284 82.9351 115.442 82.413 116.601 81.8908C117.759 81.3687 118.773 80.6725 119.642 79.8022C120.51 80.7885 121.64 81.2816 123.03 81.2816C124.478 81.2816 125.897 81.0786 127.288 80.6725C128.678 80.2083 130.097 79.9763 131.545 79.9763C132.703 79.9763 133.804 80.0923 134.847 80.3244C135.947 80.5564 137.077 80.6725 138.235 80.6725C139.509 80.6725 140.436 80.5274 141.016 80.2373C141.653 79.8892 142.435 79.3091 143.361 78.4968C144.288 77.6846 145.447 77.0754 146.837 76.6693C148.285 76.2052 149.762 75.8571 151.268 75.625C152.832 75.3349 154.367 75.0448 155.873 74.7547C157.437 74.4647 158.827 74.0585 160.043 73.5364C161.26 72.9562 162.245 72.202 162.998 71.2737C163.751 70.2874 164.127 68.9531 164.127 67.2706C164.127 65.414 163.577 63.4705 162.476 61.4399C161.434 59.3513 160.072 57.4657 158.393 55.7832C156.713 54.0427 154.859 52.6213 152.832 51.519C150.805 50.4167 148.864 49.8655 147.011 49.8655C146.779 49.8655 146.547 49.8945 146.316 49.9525C146.084 50.0105 145.881 50.0396 145.707 50.0396C144.317 50.2716 142.753 50.4457 141.016 50.5617C139.278 50.6197 137.656 50.8808 136.15 51.3449C134.644 51.7511 133.37 52.4763 132.327 53.5206C131.284 54.5069 130.763 55.9863 130.763 57.9589C130.763 59.1192 130.85 60.2795 131.024 61.4399C131.255 62.5422 131.371 63.6735 131.371 64.8339C131.371 66.5744 130.937 68.0248 130.068 69.1851C129.257 70.3455 128.185 71.2737 126.853 71.9699C125.579 72.6661 124.16 73.1593 122.596 73.4494C121.032 73.6814 119.526 73.7975 118.078 73.7975C116.34 73.7975 114.834 73.5654 113.56 73.1013C112.285 72.6371 111.243 71.5638 110.432 69.8813C109.795 68.663 109.099 67.3576 108.346 65.9652C107.651 64.5148 107.304 63.0643 107.304 61.6139C107.304 60.0475 107.565 58.597 108.086 57.2627C108.665 55.8703 109.302 54.5359 109.997 53.2595C110.692 51.9251 111.359 50.6197 111.996 49.3434C112.691 48.009 113.183 46.5876 113.473 45.0791C113.878 44.847 114.428 44.615 115.124 44.3829C115.877 44.1508 116.659 43.9188 117.469 43.6867C118.338 43.4546 119.149 43.2516 119.902 43.0775C120.713 42.8455 121.379 42.6424 121.901 42.4684C123.291 42.0622 124.623 41.5981 125.897 41.0759C127.23 40.4958 128.562 39.9736 129.894 39.5095C131.284 39.0454 132.646 38.6392 133.978 38.2911C135.368 37.943 136.787 37.74 138.235 37.682L140.929 37.5949C143.419 37.5949 145.968 37.827 148.575 38.2911C151.181 38.6973 153.73 39.3645 156.22 40.2927C158.711 41.221 161.057 42.3813 163.258 43.7737C165.517 45.1081 167.516 46.7036 169.253 48.5601C170.528 49.9525 171.57 51.606 172.381 53.5206C173.25 55.3771 173.916 57.3497 174.38 59.4383C174.901 61.5269 175.248 63.6445 175.422 65.7911C175.654 67.8797 175.77 69.8233 175.77 71.6218C175.77 74.0585 175.683 76.4662 175.509 78.8449C175.393 81.1656 175.335 83.5443 175.335 85.981C175.335 88.3017 175.451 90.6224 175.683 92.943C175.973 95.2057 176.291 97.4974 176.639 99.818C176.986 102.081 177.276 104.372 177.507 106.693C177.797 108.956 177.942 111.218 177.942 113.481C178.058 114.873 178.232 115.744 178.463 116.092C178.753 116.382 179.042 116.527 179.332 116.527C180.606 116.527 181.62 116.15 182.373 115.396C183.184 114.583 183.908 113.713 184.545 112.785C185.182 111.799 185.877 110.899 186.63 110.087C187.384 109.275 188.339 108.869 189.498 108.869C190.019 108.869 190.54 108.898 191.062 108.956C191.641 109.014 192.162 109.159 192.626 109.391C193.089 109.565 193.466 109.855 193.755 110.261C194.045 110.609 194.19 111.102 194.19 111.741ZM165.604 90.0712C165.604 89.7231 165.575 89.1139 165.517 88.2437C165.517 87.3734 165.459 86.5032 165.343 85.6329C165.228 84.7046 165.025 83.8924 164.735 83.1962C164.504 82.5 164.127 82.1519 163.606 82.1519C163.49 82.1519 163.345 82.2099 163.171 82.3259C162.998 82.384 162.853 82.413 162.737 82.413C160.536 83.6313 158.653 84.6466 157.089 85.4589C155.525 86.2131 153.961 86.8513 152.398 87.3734C150.892 87.8376 149.27 88.1566 147.532 88.3307C145.794 88.5047 143.622 88.5918 141.016 88.5918C140.668 88.5918 139.712 88.7368 138.148 89.0269C136.584 89.317 134.876 89.6651 133.022 90.0712C131.168 90.4193 129.431 90.7964 127.809 91.2025C126.187 91.5506 125.173 91.7827 124.768 91.8987C124.015 92.1888 123.465 92.4789 123.117 92.769C122.827 93.0591 122.596 93.3782 122.422 93.7263C122.248 94.0744 122.074 94.4515 121.901 94.8576C121.727 95.2057 121.408 95.5828 120.945 95.9889C120.366 96.4531 119.729 96.8302 119.033 97.1203C118.396 97.4103 117.788 97.8455 117.209 98.4256C116.34 99.2959 115.529 100.456 114.776 101.907C114.023 103.299 113.647 104.633 113.647 105.91C113.647 107.476 114.052 108.869 114.863 110.087C115.674 111.305 116.745 112.35 118.078 113.22C119.41 114.09 120.916 114.844 122.596 115.483C124.276 116.121 125.955 116.614 127.635 116.962C129.373 117.31 131.024 117.571 132.588 117.745C134.209 117.919 135.6 118.006 136.758 118.006C138.148 118.006 139.799 117.919 141.711 117.745C143.622 117.513 145.534 117.194 147.445 116.788C149.357 116.324 151.152 115.715 152.832 114.96C154.512 114.206 155.844 113.249 156.829 112.089C157.234 111.624 157.524 111.218 157.698 110.87C157.871 110.464 158.045 110.087 158.219 109.739C158.451 109.333 158.682 108.927 158.914 108.521C159.204 108.114 159.638 107.679 160.217 107.215C161.549 106.113 162.563 104.895 163.258 103.56C164.011 102.226 164.562 100.833 164.909 99.3829C165.257 97.9325 165.459 96.424 165.517 94.8576C165.575 93.2911 165.604 91.6957 165.604 90.0712Z" fill="#FFD52F"/>
<path d="M283.856 47.6028C283.856 48.299 283.682 49.0533 283.334 49.8655C282.987 50.6197 282.523 51.3449 281.944 52.0411C281.423 52.6793 280.815 53.2595 280.12 53.7816C279.424 54.3038 278.758 54.6809 278.121 54.913C277.079 55.2611 275.775 55.4931 274.211 55.6092C272.705 55.7252 271.228 55.9283 269.78 56.2184C268.39 56.5084 267.174 57.0306 266.131 57.7848C265.146 58.481 264.654 59.6123 264.654 61.1788C264.654 62.1071 264.596 62.7162 264.48 63.0063C264.364 63.2384 264.075 63.3544 263.611 63.3544C263.495 63.3544 263.322 63.3544 263.09 63.3544C262.916 63.2964 262.713 63.2674 262.482 63.2674L261.7 63.7025C260.889 65.6751 260.396 67.7347 260.223 69.8813C260.107 72.028 259.759 74.1166 259.18 76.1472C258.08 76.2052 257.182 76.7273 256.487 77.7136C255.849 78.6999 255.328 79.8602 254.923 81.1946C254.575 82.471 254.257 83.7764 253.967 85.1108C253.735 86.4451 253.475 87.4894 253.185 88.2437C251.389 92.5949 249.536 96.8592 247.624 101.036C245.771 105.214 243.772 109.391 241.629 113.568C241.455 113.916 241.253 114.496 241.021 115.309C240.789 116.063 240.529 116.846 240.239 117.658C239.949 118.412 239.602 119.08 239.196 119.66C238.849 120.24 238.414 120.53 237.893 120.53C237.198 120.24 236.532 119.892 235.895 119.486C235.258 119.022 234.591 118.761 233.896 118.703C233.665 118.761 233.549 118.906 233.549 119.138C233.549 119.776 233.838 120.298 234.418 120.704C235.055 121.11 235.721 121.516 236.416 121.922C237.169 122.329 237.835 122.735 238.414 123.141C239.052 123.547 239.37 124.04 239.37 124.62C239.37 125.142 239.167 125.694 238.762 126.274C238.414 126.854 238.009 127.463 237.546 128.101C237.082 128.797 236.648 129.523 236.242 130.277C235.837 131.031 235.605 131.872 235.547 132.801C235.431 133.961 235.084 135.005 234.505 135.934C233.983 136.862 233.375 137.761 232.68 138.631C232.043 139.56 231.435 140.517 230.855 141.503C230.334 142.547 229.986 143.708 229.813 144.984C229.697 145.97 229.465 146.957 229.118 147.943C228.828 148.987 228.423 149.945 227.901 150.815C227.38 151.685 226.743 152.439 225.99 153.078C225.237 153.716 224.339 154.122 223.296 154.296C223.007 156.036 222.283 157.748 221.124 159.43C220.024 161.113 218.662 162.592 217.04 163.869C215.419 165.203 213.681 166.247 211.827 167.002C209.974 167.814 208.149 168.22 206.354 168.22C204.905 168.22 203.486 168.017 202.096 167.611C200.764 167.205 199.461 166.682 198.186 166.044C197.317 165.638 196.622 165.406 196.101 165.348C195.58 165.29 195.116 165.232 194.711 165.174C194.363 165.116 193.958 164.942 193.494 164.652C193.089 164.362 192.539 163.782 191.844 162.911C190.801 161.519 189.671 160.214 188.455 158.995C187.297 157.835 186.109 156.675 184.893 155.514C184.256 154.934 183.792 154.238 183.503 153.426C183.213 152.613 182.952 151.801 182.721 150.989C182.489 150.177 182.17 149.393 181.765 148.639C181.417 147.885 180.809 147.276 179.94 146.812C179.651 146.522 179.506 145.999 179.506 145.245C179.506 144.723 179.709 143.65 180.114 142.025C180.52 140.401 181.041 138.718 181.678 136.978C182.315 135.295 183.01 133.758 183.763 132.366C184.574 131.031 185.327 130.364 186.022 130.364C186.486 130.364 186.92 130.422 187.326 130.538C187.731 130.712 188.165 130.799 188.629 130.799C189.787 130.799 190.917 130.509 192.017 129.929C193.118 129.349 194.276 129.059 195.493 129.059C196.246 129.059 196.796 129.262 197.144 129.668C197.549 130.074 197.839 130.538 198.013 131.06C198.186 131.582 198.331 132.046 198.447 132.453C198.621 132.859 198.91 133.062 199.316 133.062C199.605 133.004 199.866 132.917 200.098 132.801C200.677 132.569 201.14 132.453 201.488 132.453C202.241 132.453 202.936 132.627 203.573 132.975C204.21 133.381 204.79 133.874 205.311 134.454C205.832 135.034 206.296 135.643 206.701 136.282C207.164 136.978 207.57 137.616 207.917 138.196C208.091 138.486 208.352 138.776 208.699 139.066C209.047 139.415 209.395 139.763 209.742 140.111C210.09 140.459 210.379 140.778 210.611 141.068C210.843 141.416 210.958 141.764 210.958 142.112C210.958 142.751 210.785 143.331 210.437 143.853C210.148 144.375 210.003 144.897 210.003 145.419C210.003 145.999 210.234 146.406 210.698 146.638C211.219 146.87 211.712 146.986 212.175 146.986C213.275 146.986 214.347 146.522 215.39 145.593C216.49 144.723 217.533 143.563 218.518 142.112C219.502 140.662 220.4 139.037 221.211 137.239C222.08 135.498 222.833 133.729 223.47 131.93C224.107 130.19 224.6 128.536 224.947 126.97C225.295 125.461 225.468 124.243 225.468 123.315C225.468 122.329 225.237 120.965 224.773 119.225C224.31 117.484 223.702 115.57 222.949 113.481C222.196 111.392 221.356 109.188 220.429 106.867C219.502 104.546 218.575 102.313 217.649 100.166C216.78 98.0195 215.969 96.0469 215.216 94.2484C214.463 92.3919 213.855 90.8834 213.391 89.7231C212.465 87.5185 211.625 85.2558 210.872 82.9351C210.177 80.6144 209.366 78.3518 208.439 76.1472C207.917 74.9288 207.164 73.5364 206.18 71.9699C205.253 70.3455 204.297 68.692 203.313 67.0095C202.386 65.269 201.546 63.5865 200.793 61.962C200.098 60.2795 199.75 58.8001 199.75 57.5237C199.287 57.5237 198.766 57.4367 198.186 57.2627C197.665 57.0306 197.144 56.7985 196.622 56.5665C196.101 56.2764 195.58 56.0443 195.058 55.8703C194.595 55.6382 194.161 55.5222 193.755 55.5222C192.539 55.5222 191.293 55.6962 190.019 56.0443C188.745 56.3344 187.47 56.4794 186.196 56.4794C185.501 56.4794 184.69 56.4214 183.763 56.3054C182.836 56.1313 181.939 55.8993 181.07 55.6092C180.259 55.2611 179.535 54.7969 178.898 54.2168C178.318 53.6366 178.029 52.9114 178.029 52.0411C178.029 51.403 178.116 50.6777 178.289 49.8655C178.463 49.0533 178.695 48.299 178.985 47.6028C179.332 46.8486 179.738 46.2395 180.201 45.7753C180.664 45.2532 181.186 44.9921 181.765 44.9921C182.634 44.9921 183.474 45.2822 184.285 45.8623C185.096 46.3845 185.964 46.6456 186.891 46.6456C188.223 46.6456 189.527 46.5876 190.801 46.4715C192.133 46.3555 193.466 46.2975 194.798 46.2975C195.956 46.2975 197.086 45.9784 198.186 45.3402C199.345 44.702 200.416 44.1218 201.401 43.5997C202.502 43.0195 204.066 42.6714 206.093 42.5554C208.178 42.3813 210.263 42.2943 212.349 42.2943C213.102 42.2943 214.289 42.2653 215.911 42.2073C217.533 42.0912 219.155 42.1493 220.777 42.3813C222.456 42.6134 223.904 43.1355 225.121 43.9478C226.395 44.702 227.032 45.9204 227.032 47.6028C227.032 49.0533 226.714 50.2716 226.077 51.2579C225.497 52.1862 224.744 52.9984 223.818 53.6946C222.949 54.3908 221.964 55.029 220.863 55.6092C219.821 56.1313 218.836 56.7115 217.909 57.3497C217.04 57.9299 216.287 58.6261 215.65 59.4383C215.071 60.2505 214.781 61.2658 214.781 62.4842C214.781 64.3987 215.332 66.4583 216.432 68.663C217.533 70.8096 218.749 72.9562 220.081 75.1028C221.414 77.1915 222.659 79.193 223.818 81.1076C224.976 83.0222 225.642 84.6756 225.816 86.068C225.874 86.8223 226.077 87.8956 226.424 89.288C226.772 90.6804 227.235 92.0728 227.814 93.4652C228.451 94.7996 229.176 95.9889 229.986 97.0332C230.855 98.0195 231.782 98.5127 232.767 98.5127C233.462 98.5127 234.07 98.2226 234.591 97.6424C235.113 97.0622 235.576 96.366 235.982 95.5538C236.387 94.7416 236.706 93.9293 236.937 93.1171C237.227 92.2468 237.459 91.5506 237.632 91.0285C238.154 89.404 238.617 87.7795 239.023 86.1551C239.486 84.5306 240.21 83.0222 241.195 81.6297C242.006 80.5854 242.643 79.5121 243.106 78.4098C243.57 77.2495 244.062 76.0601 244.583 74.8418C245.162 73.3913 245.742 72.26 246.321 71.4478C246.958 70.6355 247.508 69.8233 247.972 69.0111C248.435 68.1988 248.812 67.2126 249.101 66.0522C249.449 64.8919 249.623 63.2094 249.623 61.0047C249.623 59.6704 249.333 58.6841 248.754 58.0459C248.175 57.4077 247.45 56.9146 246.582 56.5665C245.771 56.2184 244.873 55.9283 243.888 55.6962C242.903 55.4641 241.977 55.116 241.108 54.6519C240.297 54.1297 239.602 53.3755 239.023 52.3892C238.443 51.403 238.154 50.0105 238.154 48.212C238.154 46.7036 238.617 45.5142 239.544 44.644C240.471 43.7157 241.6 43.0485 242.932 42.6424C244.323 42.1783 245.829 41.8882 247.45 41.7722C249.072 41.6561 250.578 41.5981 251.969 41.5981H255.01C257.558 41.5981 260.049 41.424 262.482 41.0759C264.972 40.7278 267.463 40.5538 269.954 40.5538C270.707 40.5538 271.807 40.7569 273.256 41.163C274.704 41.5691 276.152 42.0332 277.6 42.5554C279.048 43.0775 280.264 43.5997 281.249 44.1218C282.292 44.586 282.784 44.9051 282.726 45.0791C282.726 45.0211 282.9 45.2532 283.247 45.7753C283.653 46.2975 283.856 46.9066 283.856 47.6028ZM212.175 149.335L210.872 149.248H210.35C209.366 149.248 208.584 149.48 208.004 149.945C207.425 150.467 207.136 151.25 207.136 152.294L207.222 152.991C207.744 152.874 208.294 152.758 208.873 152.642C209.452 152.584 209.974 152.468 210.437 152.294C210.958 152.12 211.364 151.859 211.654 151.511C212.001 151.163 212.175 150.67 212.175 150.032V149.335Z" fill="#FFD52F"/>
<path d="M363.443 100.34C363.443 101.094 363.298 101.849 363.008 102.603C362.777 103.299 362.487 104.024 362.14 104.778C361.792 105.475 361.445 106.171 361.097 106.867C360.807 107.563 360.605 108.288 360.489 109.043C360.199 110.609 359.591 112.031 358.664 113.307C357.795 114.525 356.782 115.686 355.623 116.788C354.465 117.89 353.248 118.964 351.974 120.008C350.7 120.994 349.57 122.009 348.585 123.054C347.717 123.924 346.79 124.359 345.805 124.359C345.226 124.359 344.676 124.301 344.154 124.185C343.633 124.069 343.083 124.011 342.503 124.011C341.693 124.011 341.026 124.156 340.505 124.446C340.042 124.736 339.578 125.055 339.115 125.403C338.709 125.694 338.188 125.984 337.551 126.274C336.972 126.564 336.161 126.709 335.118 126.709C334.365 126.709 333.641 126.912 332.946 127.318C332.251 127.724 331.556 127.927 330.861 127.927C329.876 127.927 328.718 127.637 327.385 127.057C326.111 126.477 324.692 126.187 323.128 126.187C322.143 126.187 321.159 126.245 320.174 126.361C319.189 126.419 318.204 126.448 317.22 126.448C316.351 126.448 315.482 126.332 314.613 126.1C313.802 125.81 312.991 125.52 312.18 125.229C311.427 124.881 310.645 124.591 309.834 124.359C309.023 124.069 308.184 123.924 307.315 123.924C305.577 123.924 304.1 124.359 302.884 125.229C301.667 126.1 300.567 127.057 299.582 128.101C298.655 129.204 297.699 130.19 296.715 131.06C295.788 131.93 294.716 132.366 293.5 132.366C292.399 132.366 291.646 132.162 291.241 131.756C290.893 131.408 290.662 130.973 290.546 130.451C290.488 129.929 290.43 129.349 290.372 128.71C290.314 128.13 290.053 127.608 289.59 127.144C288.721 126.216 288.142 125.374 287.852 124.62C287.563 123.808 287.418 122.764 287.418 121.487C287.418 118.703 287.65 116.005 288.113 113.394C288.634 110.725 288.895 107.998 288.895 105.214C288.895 104.227 288.779 103.27 288.547 102.342C288.316 101.413 288.026 100.572 287.679 99.818C287.389 99.0638 287.128 98.4256 286.897 97.9035C286.665 97.3813 286.549 97.0042 286.549 96.7721C286.549 96.25 286.694 95.6988 286.983 95.1187C287.273 94.5385 287.592 94.0163 287.939 93.5522C288.345 93.0301 288.75 92.6239 289.156 92.3339C289.619 91.9858 289.996 91.8117 290.285 91.8117C290.864 91.8117 291.357 91.9567 291.762 92.2468C292.226 92.5369 292.66 92.856 293.065 93.2041C293.529 93.4942 293.963 93.7843 294.369 94.0744C294.832 94.3644 295.382 94.5095 296.02 94.5095C296.135 94.5095 296.222 94.5095 296.28 94.5095C296.338 94.4515 296.425 94.4225 296.541 94.4225C297.352 95.7569 297.989 97.2073 298.452 98.7737C298.916 100.282 299.379 101.791 299.843 103.299C300.364 104.749 300.972 106.171 301.667 107.563C302.42 108.898 303.463 110.087 304.795 111.131C305.143 111.421 305.548 111.741 306.011 112.089C306.475 112.437 306.938 112.785 307.402 113.133C307.923 113.481 308.415 113.771 308.879 114.003C309.4 114.235 309.863 114.351 310.269 114.351C310.906 114.351 311.514 114.293 312.093 114.177C312.731 114.061 313.368 114.003 314.005 114.003C314.874 114.003 315.308 114.293 315.308 114.873C315.308 114.989 315.25 115.222 315.134 115.57H316.785C318.986 115.57 321.187 115.309 323.389 114.786C325.59 114.264 327.82 114.003 330.079 114.003C331.121 114.003 332.164 114.119 333.207 114.351C334.307 114.525 335.292 114.931 336.161 115.57C337.261 115.047 338.188 114.38 338.941 113.568C339.694 112.756 340.447 111.973 341.2 111.218C341.953 110.406 342.793 109.71 343.72 109.13C344.647 108.492 345.834 108.143 347.282 108.085C347.572 107.737 347.717 107.331 347.717 106.867C347.775 106.403 347.803 105.968 347.803 105.562C347.803 105.098 347.832 104.662 347.89 104.256C348.006 103.85 348.238 103.473 348.585 103.125C349.165 102.603 349.599 102.081 349.889 101.559C350.236 100.978 350.41 100.282 350.41 99.4699C350.41 97.9035 349.976 96.4531 349.107 95.1187C348.238 93.7263 347.108 92.4789 345.718 91.3766C344.386 90.2162 342.822 89.2009 341.026 88.3307C339.289 87.4024 337.493 86.6192 335.639 85.981C333.844 85.3428 332.106 84.8787 330.426 84.5886C328.747 84.2405 327.269 84.0665 325.995 84.0665C324.547 84.0665 323.099 84.2115 321.651 84.5016C320.261 84.7336 318.9 85.1688 317.567 85.807C317.567 84.5306 317.278 83.6893 316.698 83.2832C316.119 82.8771 315.424 82.587 314.613 82.413C313.802 82.2389 312.962 82.0069 312.093 81.7168C311.283 81.3687 310.645 80.6435 310.182 79.5411C309.197 80.8175 307.952 81.7458 306.446 82.3259C304.998 82.9061 303.521 83.1962 302.015 83.1962C300.509 83.1962 299.119 82.9061 297.844 82.3259C296.57 81.7458 295.411 80.9626 294.369 79.9763C293.384 78.99 292.573 77.8586 291.936 76.5823C291.357 75.3059 291.038 73.9425 290.98 72.4921C290.922 71.5058 290.72 70.6355 290.372 69.8813C290.024 69.1271 289.648 68.4019 289.243 67.7057C288.837 67.0095 288.461 66.2843 288.113 65.5301C287.823 64.7758 287.679 63.8766 287.679 62.8323C287.679 60.2215 287.794 58.1909 288.026 56.7405C288.316 55.2321 288.663 54.1007 289.069 53.3465C289.474 52.5343 289.909 51.9831 290.372 51.693C290.893 51.3449 291.415 51.0258 291.936 50.7358C292.457 50.3877 292.95 49.9235 293.413 49.3434C293.876 48.7632 294.253 47.8349 294.543 46.5585C294.716 45.6883 294.977 45.1081 295.325 44.818C295.672 44.528 296.28 44.3249 297.149 44.2089C297.902 44.0928 298.394 43.9188 298.626 43.6867C298.858 43.4546 299.003 43.1936 299.061 42.9035C299.176 42.6134 299.292 42.3233 299.408 42.0332C299.524 41.6851 299.814 41.366 300.277 41.0759C301.493 40.2637 302.681 39.7706 303.839 39.5965C305.056 39.3645 306.301 39.2484 307.575 39.2484C308.328 39.2484 309.052 39.2774 309.748 39.3354C310.443 39.3354 311.196 39.3354 312.007 39.3354C314.439 39.3354 316.814 39.2194 319.131 38.9873C321.448 38.7553 323.823 38.6392 326.256 38.6392C328.109 38.6392 329.789 38.8423 331.295 39.2484C332.859 39.5965 334.22 40.0026 335.379 40.4668C336.537 40.9309 337.522 41.366 338.333 41.7722C339.202 42.1203 339.897 42.2943 340.418 42.2943C341.403 42.2943 342.33 42.1203 343.199 41.7722C344.125 41.366 345.081 41.134 346.066 41.0759C346.529 41.4821 347.05 41.8592 347.63 42.2073C348.267 42.4974 348.904 42.6424 349.541 42.6424C350.005 42.6424 350.352 42.4974 350.584 42.2073C350.816 41.9172 350.96 41.5401 351.018 41.0759C351.829 41.308 352.611 41.7141 353.364 42.2943C354.117 42.8745 354.783 43.5707 355.363 44.3829C356 45.1371 356.492 45.9784 356.84 46.9066C357.187 47.7769 357.361 48.6181 357.361 49.4304C357.361 51.577 357.187 53.7236 356.84 55.8703C356.55 57.9589 356.405 60.0765 356.405 62.2231C356.405 64.4277 356.695 66.4873 357.274 68.4019C356.463 69.0401 355.565 69.6203 354.581 70.1424C353.654 70.6065 352.872 71.2737 352.235 72.144L352.148 72.057C351.742 71.7089 351.221 71.2737 350.584 70.7516C350.005 70.1714 349.367 69.6203 348.672 69.0981C348.035 68.5759 347.398 68.1408 346.761 67.7927C346.124 67.3866 345.544 67.1835 345.023 67.1835H344.849C344.56 67.0095 344.299 66.8064 344.067 66.5744C343.894 66.3423 343.807 66.0522 343.807 65.7041C343.807 65.1239 343.981 64.6018 344.328 64.1377C344.676 63.6735 344.849 63.1514 344.849 62.5712C344.849 62.3972 344.589 61.991 344.067 61.3528C343.546 60.7147 342.938 60.0765 342.243 59.4383C341.606 58.7421 340.968 58.1329 340.331 57.6108C339.694 57.0306 339.231 56.7115 338.941 56.6535C338.362 56.5374 337.754 56.3344 337.117 56.0443C336.479 55.7542 335.842 55.4641 335.205 55.174C334.568 54.884 333.96 54.6229 333.38 54.3908C332.859 54.1588 332.425 54.0427 332.077 54.0427C331.324 54.0427 330.571 54.1588 329.818 54.3908C329.065 54.5649 328.283 54.6809 327.472 54.7389H327.559L323.649 54.3038C321.738 54.0717 319.855 53.6076 318.002 52.9114C316.148 52.2152 314.237 51.8671 312.267 51.8671C310.53 51.8671 309.255 52.2732 308.444 53.0854C307.633 53.8977 306.967 54.8259 306.446 55.8703C305.925 56.8565 305.403 57.7558 304.882 58.568C304.361 59.3803 303.492 59.7864 302.275 59.7864C301.928 59.7864 301.667 59.7574 301.493 59.6994C302.073 61.5559 302.594 63.1224 303.057 64.3987C303.579 65.6751 304.187 66.8354 304.882 67.8797C305.577 68.866 306.446 69.8233 307.489 70.7516C308.531 71.6218 309.863 72.5791 311.485 73.6234C311.659 73.7394 311.891 73.9425 312.18 74.2326C312.528 74.5227 312.875 74.8418 313.223 75.1899C313.571 75.48 313.889 75.741 314.179 75.9731C314.526 76.2052 314.787 76.3212 314.961 76.3212C315.945 76.3212 316.872 76.0891 317.741 75.625C318.668 75.1609 319.624 74.9288 320.608 74.9288C321.303 74.9288 321.941 75.1028 322.52 75.4509C323.157 75.741 323.823 75.8861 324.518 75.8861C325.213 75.8861 325.879 75.77 326.516 75.538C327.154 75.2479 327.849 75.1028 328.602 75.1028C328.891 75.1028 329.181 75.1319 329.471 75.1899C329.818 75.2479 330.137 75.3059 330.426 75.3639C332.164 75.8281 333.902 76.0601 335.639 76.0601C337.377 76.0021 339.144 76.0021 340.94 76.0601C342.214 76.0601 343.488 76.2922 344.762 76.7563C346.095 77.2205 347.369 77.8296 348.585 78.5839C349.802 79.2801 350.931 80.0923 351.974 81.0206C353.017 81.9488 353.914 82.9061 354.667 83.8924C355.247 84.7046 355.884 85.4299 356.579 86.068C357.274 86.7062 357.94 87.3734 358.577 88.0696C359.272 88.7078 359.881 89.404 360.402 90.1582C360.923 90.9124 361.3 91.7827 361.531 92.769C361.821 93.9293 362.198 95.2057 362.661 96.5981C363.182 97.9905 363.443 99.2379 363.443 100.34Z" fill="#FFD52F"/>
<path d="M99.3104 244.802C99.3104 245.556 99.1656 246.253 98.8759 246.891C98.5863 247.529 98.4415 248.225 98.4415 248.979C98.4415 249.56 98.5574 250.14 98.789 250.72C99.0207 251.242 99.1366 251.793 99.1366 252.373C99.1366 252.838 99.0497 253.592 98.8759 254.636C98.7022 255.622 98.4705 256.667 98.1808 257.769C97.9492 258.871 97.6885 259.916 97.3989 260.902C97.1093 261.83 96.8486 262.468 96.6169 262.816H94.0972C93.8655 264.035 93.4601 265.282 92.8808 266.559C90.6797 267.603 88.7972 268.27 87.2332 268.56C85.6693 268.85 83.9895 268.995 82.1939 268.995C81.3829 268.995 80.5141 268.995 79.5873 268.995C78.7184 268.937 77.7627 268.908 76.7201 268.908C74.8086 268.908 73.1288 268.995 71.6807 269.169C70.2326 269.401 68.6687 270.011 66.9889 270.997C66.4676 271.229 65.9173 271.345 65.3381 271.345C64.2375 271.345 63.1369 271.229 62.0364 270.997C60.9938 270.765 59.9511 270.504 58.9085 270.214C57.8659 269.924 56.7943 269.662 55.6937 269.43C54.6511 269.198 53.5795 269.082 52.479 269.082C50.915 269.082 49.3511 268.937 47.7871 268.647C46.2232 268.299 44.6593 268.125 43.0953 268.125C41.9368 268.125 40.8073 268.241 39.7068 268.473C38.6062 268.647 37.4767 268.85 36.3182 269.082C35.2177 269.372 34.1171 269.604 33.0166 269.778C31.916 270.011 30.7865 270.127 29.628 270.127C28.5854 270.127 27.5717 270.011 26.587 269.778C25.6023 269.546 24.5887 269.43 23.546 269.43C21.6925 269.43 19.8389 269.575 17.9853 269.866C16.1897 270.214 14.3651 270.388 12.5115 270.388C10.0787 270.388 8.05141 269.807 6.42954 268.647C4.8656 267.429 4.08363 265.514 4.08363 262.903C4.08363 261.859 4.31532 260.931 4.77871 260.119C6.11096 257.682 7.47217 255.941 8.86234 254.897C10.3104 253.795 11.6716 253.012 12.946 252.547C14.2782 252.083 15.5236 251.764 16.6821 251.59C17.8405 251.416 18.8542 251.039 19.7231 250.459C20.5919 249.879 21.258 248.892 21.7214 247.5C22.2427 246.108 22.5034 243.961 22.5034 241.06C22.5034 237.637 22.2138 234.272 21.6345 230.965C21.1132 227.6 20.8526 224.177 20.8526 220.696C20.8526 219.014 21.0263 217.36 21.3739 215.736C21.7214 214.111 21.8952 212.458 21.8952 210.775C21.8952 207.874 21.7504 205.032 21.4608 202.247C21.2291 199.404 21.1132 196.561 21.1132 193.718C21.1132 191.746 20.8526 189.831 20.3313 187.975C19.8099 186.06 19.5493 184.117 19.5493 182.144C19.5493 180.984 19.6651 179.881 19.8968 178.837C20.1285 177.735 20.2444 176.632 20.2444 175.53C20.2444 173.848 20.1575 172.165 19.9837 170.483C19.8099 168.8 19.6651 167.118 19.5493 165.435C19.4914 164.507 19.3466 163.608 19.1149 162.737C18.9411 161.809 18.6225 161.026 18.1591 160.388C17.6957 159.691 17.0875 159.14 16.3345 158.734C15.5815 158.328 14.6547 158.125 13.5542 158.125C12.5115 158.125 11.4689 158.299 10.4263 158.647C9.44158 158.995 8.39895 159.169 7.2984 159.169C6.66124 159.169 6.05304 159.111 5.4738 158.995C4.89456 158.879 4.31532 158.734 3.73609 158.56C3.44647 158.154 3.18581 157.69 2.95411 157.168C2.78034 156.646 2.57761 156.152 2.34591 155.688C2.11422 155.166 1.8246 154.731 1.47706 154.383C1.12951 153.977 0.637162 153.716 0 153.6C0.579238 152.729 1.12951 151.598 1.65083 150.206C2.17214 148.813 2.75138 147.479 3.38854 146.203C4.08363 144.926 4.89456 143.824 5.82134 142.896C6.74812 141.967 7.87764 141.503 9.20988 141.503C10.3104 141.503 11.3241 141.764 12.2509 142.286C13.2356 142.809 14.2782 143.07 15.3788 143.07C16.7689 143.07 18.1012 142.78 19.3755 142.199C20.6498 141.619 22.011 141.329 23.4591 141.329C24.6176 141.329 25.6602 141.735 26.587 142.547C27.6297 142.257 28.5854 142.112 29.4543 142.112C30.0335 142.112 30.5838 142.199 31.1051 142.373C31.6843 142.547 32.2636 142.634 32.8428 142.634C34.5805 142.634 36.2603 142.402 37.8822 141.938C39.562 141.416 41.2707 141.155 43.0084 141.155C44.3986 141.155 45.7308 141.358 47.0052 141.764C48.2795 142.17 49.5249 142.663 50.7413 143.244C51.9577 143.766 53.1741 144.317 54.3905 144.897C55.6069 145.477 56.8812 145.912 58.2134 146.203C58.2713 146.493 58.3003 146.754 58.3003 146.986C58.3582 147.16 58.3872 147.392 58.3872 147.682V148.03L58.3003 148.378C58.2424 149.48 58.0397 150.583 57.6921 151.685C57.3446 152.729 57.0839 153.774 56.9101 154.818C56.6205 156.21 56.0992 157.11 55.3462 157.516C54.6511 157.864 53.7823 158.038 52.7396 158.038C52.2762 158.038 51.7839 158.038 51.2626 158.038C50.7413 157.98 50.2489 157.951 49.7855 157.951C47.6423 157.951 45.4991 158.125 43.356 158.473C41.2707 158.763 39.2144 159.227 37.1871 159.866C36.6078 160.968 36.3182 162.186 36.3182 163.521C36.3182 164.565 36.4341 165.609 36.6658 166.653C36.8975 167.698 37.0712 168.742 37.1871 169.786C36.5499 169.67 35.9707 169.525 35.4494 169.351C34.986 169.119 34.4357 169.003 33.7985 169.003C33.3351 169.003 32.9007 169.264 32.4953 169.786C32.1477 170.309 31.9739 170.802 31.9739 171.266C31.9739 171.672 32.1187 172.02 32.4084 172.31C32.698 172.6 33.0455 172.832 33.451 173.006C33.8565 173.18 34.2909 173.296 34.7543 173.354C35.2177 173.412 35.5942 173.441 35.8838 173.441L35.9707 175.182C35.9707 177.329 35.71 179.446 35.1887 181.535C34.7253 183.565 34.4936 185.654 34.4936 187.801C34.4936 188.439 34.5515 189.077 34.6674 189.715C34.8412 190.353 34.9281 190.992 34.9281 191.63C34.9281 192.384 34.6964 192.848 34.233 193.022C33.8275 193.196 33.3641 193.283 32.8428 193.283C32.3794 193.283 31.916 193.312 31.4526 193.37C31.0472 193.428 30.8444 193.689 30.8444 194.153C30.8444 194.328 30.8734 194.473 30.9313 194.589C30.6996 195.053 30.5838 195.459 30.5838 195.807C30.5838 196.329 30.7865 196.648 31.192 196.764C31.5974 196.88 32.0319 196.967 32.4953 197.025C32.9586 197.025 33.3931 197.083 33.7985 197.199C34.204 197.257 34.4067 197.489 34.4067 197.896C34.4067 198.534 34.3199 199.143 34.1461 199.723C33.9723 200.245 33.8854 200.796 33.8854 201.377C33.8854 202.943 34.204 204.451 34.8412 205.902C35.4783 207.352 35.7969 208.861 35.7969 210.427C35.7969 211.82 35.5942 213.212 35.1887 214.604C34.8412 215.939 34.6674 217.302 34.6674 218.695C34.6674 219.565 34.7832 220.435 35.0149 221.305C35.3046 222.118 35.5942 222.959 35.8838 223.829C36.2313 224.641 36.521 225.483 36.7527 226.353C37.0423 227.165 37.1871 228.006 37.1871 228.877C37.1871 230.095 36.9843 231.284 36.5789 232.445C36.1734 233.605 35.9707 234.794 35.9707 236.013C35.9707 236.303 36.0286 236.738 36.1445 237.318C36.3761 238.652 36.5789 240.248 36.7527 242.104C36.9843 243.903 37.3609 245.643 37.8822 247.326C38.4035 248.95 39.1855 250.343 40.2281 251.503C41.2707 252.663 42.7478 253.244 44.6593 253.244C46.4549 253.244 48.1926 252.983 49.8724 252.46C51.5522 251.88 53.2899 251.59 55.0855 251.59C56.1861 251.59 57.2577 251.735 58.3003 252.025C59.4009 252.257 60.4725 252.547 61.5151 252.896C62.5577 253.244 63.6003 253.563 64.643 253.853C65.7435 254.085 66.873 254.201 68.0315 254.201C69.7692 254.201 71.478 253.998 73.1578 253.592C74.8955 253.186 76.6332 252.838 78.3709 252.547C80.8037 252.083 82.6283 251.271 83.8447 250.111C85.0611 248.892 85.6693 246.978 85.6693 244.367C85.6693 241.756 85.3507 239.233 84.7136 236.796C84.1343 234.301 83.8447 231.748 83.8447 229.138C83.8447 227.571 84.0764 226.063 84.5398 224.612C85.0032 223.104 85.7272 221.77 86.7119 220.609C88.1021 220.145 89.4923 219.913 90.8824 219.913C93.4311 219.913 95.2267 220.754 96.2694 222.437C97.312 224.061 97.8333 226.005 97.8333 228.267C97.8333 229.254 97.6306 229.95 97.2251 230.356C96.8196 230.704 96.6169 231.052 96.6169 231.4C96.6169 231.516 96.7328 231.69 96.9644 231.922C97.1961 232.097 97.4568 232.329 97.7464 232.619C98.036 232.909 98.2967 233.257 98.5284 233.663C98.7601 234.069 98.8759 234.504 98.8759 234.968C98.8759 235.374 98.7022 235.665 98.3546 235.839C98.3546 236.477 98.3257 237.26 98.2677 238.188C98.2098 239.117 98.1519 240.045 98.094 240.973C98.094 241.901 98.1229 242.772 98.1808 243.584C98.2388 244.396 98.3836 245.005 98.6153 245.411L99.3104 244.802Z" fill="#FFD52F"/>
<path d="M187.76 250.807C187.76 252.373 187.499 253.708 186.978 254.81C186.515 255.912 185.877 256.899 185.067 257.769C184.314 258.639 183.416 259.451 182.373 260.206C181.388 260.96 180.375 261.772 179.332 262.642C178.521 263.339 177.797 263.861 177.16 264.209C176.523 264.557 175.886 264.847 175.248 265.079C174.669 265.311 174.032 265.543 173.337 265.775C172.7 266.007 171.947 266.326 171.078 266.733C169.919 267.313 168.935 267.864 168.124 268.386C167.371 268.85 166.589 269.285 165.778 269.691C165.025 270.098 164.185 270.417 163.258 270.649C162.331 270.939 161.173 271.171 159.783 271.345C157.466 271.635 155.12 271.983 152.745 272.389C150.428 272.795 148.111 272.998 145.794 272.998C145.331 272.998 144.838 272.882 144.317 272.65C143.854 272.476 143.303 272.273 142.666 272.041C142.029 271.867 141.305 271.664 140.494 271.432C139.741 271.258 138.814 271.171 137.714 271.171C136.555 271.171 135.629 270.997 134.934 270.649C134.238 270.301 133.601 269.895 133.022 269.43C132.501 268.966 131.95 268.473 131.371 267.951C130.792 267.371 130.039 266.878 129.112 266.472C125.637 264.905 122.683 263.02 120.25 260.815C117.817 258.61 115.732 256.145 113.994 253.418C112.256 250.691 110.808 247.732 109.65 244.541C108.491 241.35 107.507 238.014 106.696 234.533C106.058 232.097 105.74 229.66 105.74 227.223C105.74 224.032 106.493 221.073 107.999 218.347C107.42 216.722 107.13 215.156 107.13 213.647C107.13 212.545 107.449 210.92 108.086 208.774C108.723 206.569 109.534 204.364 110.519 202.16C111.561 199.955 112.662 197.983 113.82 196.242C115.037 194.444 116.166 193.341 117.209 192.935C118.02 192.645 118.57 192.413 118.86 192.239C119.207 192.007 119.381 191.427 119.381 190.498C119.381 189.802 119.642 189.222 120.163 188.758C120.742 188.294 121.408 187.917 122.161 187.627C122.972 187.336 123.754 187.075 124.507 186.843C125.318 186.611 125.984 186.379 126.506 186.147C128.649 185.103 130.676 184.233 132.588 183.536C134.557 182.782 136.497 182.173 138.409 181.709C140.378 181.187 142.406 180.81 144.491 180.578C146.576 180.345 148.806 180.229 151.181 180.229C152.455 180.229 153.701 180.403 154.917 180.752C156.134 181.1 157.292 181.564 158.393 182.144C159.551 182.666 160.681 183.275 161.781 183.972C162.882 184.61 163.953 185.248 164.996 185.886H164.909C165.778 186.002 166.589 186.263 167.342 186.669C168.153 187.017 168.993 187.249 169.862 187.366C170.672 188.352 171.715 189.309 172.989 190.237C174.322 191.108 175.596 192.036 176.812 193.022C178.087 194.008 179.158 195.082 180.027 196.242C180.954 197.344 181.417 198.621 181.417 200.071C181.417 200.303 181.388 200.535 181.33 200.767C181.33 200.999 181.302 201.261 181.244 201.551L181.591 201.116C181.823 201.29 182.026 201.58 182.199 201.986C182.431 202.392 182.634 202.856 182.808 203.378C182.981 203.842 183.126 204.335 183.242 204.858C183.358 205.322 183.445 205.699 183.503 205.989C183.966 206.743 184.574 207.352 185.327 207.816C186.138 208.281 186.775 208.919 187.239 209.731C186.659 210.311 186.37 211.065 186.37 211.994C186.37 212.98 186.573 213.966 186.978 214.953C187.384 215.881 187.586 216.838 187.586 217.824C187.586 218.985 187.528 220.116 187.412 221.218C187.297 222.263 187.239 223.365 187.239 224.525C187.239 225.396 186.891 226.063 186.196 226.527C185.559 226.991 184.835 227.397 184.024 227.745C183.271 228.093 182.576 228.441 181.939 228.79C181.302 229.138 180.983 229.631 180.983 230.269C180.983 230.733 180.693 230.965 180.114 230.965C179.593 230.907 179.158 230.878 178.811 230.878C176.262 230.878 173.713 230.559 171.165 229.921C168.674 229.283 166.183 228.964 163.693 228.964C160.97 228.964 158.277 229.167 155.612 229.573C152.948 229.921 150.254 230.095 147.532 230.095C145.505 230.095 143.477 230.037 141.45 229.921C139.481 229.805 137.482 229.747 135.455 229.747C134.934 229.747 133.949 229.863 132.501 230.095C131.053 230.269 129.518 230.53 127.896 230.878C126.332 231.168 124.826 231.545 123.378 232.009C121.93 232.416 120.916 232.822 120.337 233.228C120.279 233.518 120.25 233.924 120.25 234.446C120.25 237.173 121.032 239.987 122.596 242.888C124.218 245.788 126.332 248.428 128.938 250.807C131.545 253.186 134.47 255.158 137.714 256.725C140.958 258.291 144.23 259.074 147.532 259.074C149.443 259.074 151.326 259.161 153.179 259.335C155.091 259.451 156.945 259.858 158.74 260.554C160.304 259.8 161.723 258.929 162.998 257.943C164.33 256.957 165.604 255.912 166.821 254.81C168.037 253.708 169.224 252.576 170.383 251.416C171.541 250.256 172.729 249.095 173.945 247.935C174.177 247.703 174.727 247.5 175.596 247.326C176.523 247.094 177.507 246.92 178.55 246.804C179.593 246.63 180.577 246.514 181.504 246.456C182.489 246.34 183.155 246.282 183.503 246.282C184.835 246.282 186.08 246.485 187.239 246.891C187.586 248.225 187.76 249.531 187.76 250.807ZM174.727 215.475C174.727 214.604 174.582 213.763 174.293 212.951C174.003 212.139 173.771 211.297 173.598 210.427C173.308 208.803 173.163 207.236 173.163 205.728C173.163 204.161 172.932 202.595 172.468 201.028H172.381C172.381 201.377 172.265 201.725 172.034 202.073C171.802 202.363 171.483 202.508 171.078 202.508C170.383 202.508 169.717 202.334 169.08 201.986C168.442 201.638 167.892 201.203 167.429 200.68C165.228 199.694 163.229 198.766 161.434 197.896C159.696 197.025 157.929 196.271 156.134 195.633C154.396 194.937 152.513 194.415 150.486 194.066C148.517 193.66 146.229 193.457 143.622 193.457C143.39 193.457 143.159 193.486 142.927 193.544C142.753 193.544 142.579 193.631 142.406 193.805L142.84 194.763L142.145 194.937C140.581 195.227 139.278 195.517 138.235 195.807C137.25 196.039 136.353 196.387 135.542 196.851C134.731 197.315 133.92 197.896 133.109 198.592C132.356 199.23 131.371 200.071 130.155 201.116C129.576 201.638 128.938 202.044 128.243 202.334C127.606 202.566 126.94 202.798 126.245 203.03C125.608 203.204 124.971 203.407 124.333 203.639C123.754 203.871 123.262 204.248 122.856 204.771C122.451 206.221 121.843 207.642 121.032 209.035C120.279 210.369 119.902 211.791 119.902 213.299C119.902 214.169 120.25 214.953 120.945 215.649C121.698 216.287 122.625 216.838 123.725 217.302C124.884 217.766 126.129 218.172 127.461 218.521C128.852 218.869 130.213 219.13 131.545 219.304C132.877 219.478 134.094 219.623 135.194 219.739C136.353 219.797 137.25 219.826 137.888 219.826C140.089 219.826 142.261 219.623 144.404 219.217C146.547 218.753 148.719 218.521 150.92 218.521C153.179 218.521 155.439 218.637 157.698 218.869C159.957 219.043 162.216 219.13 164.475 219.13C165.054 219.13 165.923 219.101 167.081 219.043C168.24 218.985 169.369 218.84 170.47 218.608C171.628 218.318 172.613 217.94 173.424 217.476C174.293 216.954 174.727 216.287 174.727 215.475Z" fill="#FFD52F"/>
<path d="M292.11 172.223L291.675 172.31C291.038 172.31 290.488 172.136 290.024 171.788C289.561 171.382 289.04 171.121 288.461 171.005L288.374 171.353C288.374 171.817 288.518 172.252 288.808 172.658C289.098 173.064 289.416 173.441 289.764 173.79C290.111 174.138 290.43 174.515 290.72 174.921C291.009 175.269 291.154 175.617 291.154 175.965C291.154 176.487 290.806 176.777 290.111 176.835C289.474 176.893 288.982 176.98 288.634 177.097C287.939 177.271 287.389 177.706 286.983 178.402C286.578 179.04 286.086 179.765 285.506 180.578C284.985 181.332 284.261 182.028 283.334 182.666C282.465 183.246 281.22 183.536 279.598 183.536C277.571 183.536 275.544 183.072 273.516 182.144C271.199 181.042 269.519 179.707 268.477 178.141C267.434 176.516 266.739 174.834 266.392 173.093C266.044 171.353 265.841 169.641 265.783 167.959C265.725 166.218 265.523 164.652 265.175 163.259C264.828 161.867 264.162 160.765 263.177 159.953C262.192 159.082 260.57 158.647 258.311 158.647C256.226 158.647 254.025 158.908 251.708 159.43C249.391 159.895 247.248 160.707 245.278 161.867C243.367 162.969 241.774 164.42 240.5 166.218C239.225 167.959 238.588 170.076 238.588 172.571C238.588 175.298 238.704 177.416 238.936 178.924C239.167 180.374 239.66 181.448 240.413 182.144C241.166 182.782 242.266 183.159 243.714 183.275C245.162 183.333 247.103 183.362 249.536 183.362C249.999 183.362 250.636 183.71 251.447 184.407C252.316 185.045 253.156 185.828 253.967 186.756C254.836 187.627 255.56 188.526 256.139 189.454C256.776 190.382 257.095 191.137 257.095 191.717C257.095 193.051 256.516 194.095 255.357 194.85C254.257 195.546 252.924 196.068 251.36 196.416C249.796 196.764 248.203 196.967 246.582 197.025C244.96 197.083 243.685 197.112 242.759 197.112C241.774 197.112 240.963 197.315 240.326 197.722C239.747 198.128 239.312 198.65 239.023 199.288C238.733 199.926 238.53 200.651 238.414 201.464C238.356 202.276 238.327 203.088 238.327 203.9C238.327 207.787 238.53 211.675 238.936 215.562C239.399 219.391 239.631 223.278 239.631 227.223C239.631 229.486 239.312 231.342 238.675 232.793C238.096 234.243 237.806 235.432 237.806 236.361C237.806 236.999 237.922 237.637 238.154 238.275C238.443 238.913 238.588 239.552 238.588 240.19C238.588 241.466 238.385 242.714 237.98 243.932C237.632 245.092 237.459 246.311 237.459 247.587C237.459 248.631 237.632 249.531 237.98 250.285C238.327 250.981 238.733 251.677 239.196 252.373C239.66 253.012 240.094 253.65 240.5 254.288C240.905 254.926 241.195 255.68 241.368 256.551C242.932 256.319 244.467 255.999 245.973 255.593C247.537 255.187 249.13 254.984 250.752 254.984C251.795 254.984 253.214 255.042 255.01 255.158C256.863 255.274 258.659 255.564 260.396 256.028C262.192 256.435 263.727 257.073 265.001 257.943C266.334 258.755 267 259.887 267 261.337C267 262.555 266.826 263.716 266.478 264.818C266.189 265.92 265.725 266.936 265.088 267.864C264.451 268.792 263.669 269.546 262.742 270.127C261.816 270.765 260.744 271.171 259.528 271.345C257.964 271.577 256.429 272.012 254.923 272.65C253.417 273.288 251.882 273.608 250.318 273.608C249.333 273.608 248.377 273.434 247.45 273.085C246.582 272.737 245.655 272.36 244.67 271.954C243.743 271.606 242.788 271.258 241.803 270.91C240.818 270.562 239.776 270.388 238.675 270.388C236.068 270.388 233.491 270.388 230.942 270.388C228.451 270.446 225.903 270.591 223.296 270.823C221.848 270.939 220.429 271.171 219.039 271.519C217.649 271.925 216.23 272.302 214.781 272.65C213.391 273.056 211.972 273.405 210.524 273.695C209.076 273.985 207.628 274.13 206.18 274.13C205.543 274.13 204.79 274.014 203.921 273.782C203.052 273.55 202.154 273.23 201.227 272.824C200.358 272.418 199.519 271.983 198.708 271.519C197.955 271.113 197.317 270.678 196.796 270.214L196.709 266.21C196.709 264.296 197.115 262.845 197.926 261.859C198.737 260.815 199.779 260.061 201.054 259.597C202.386 259.074 203.892 258.755 205.572 258.639C207.251 258.523 208.96 258.436 210.698 258.378C212.493 258.32 214.231 258.233 215.911 258.117C217.591 257.943 219.068 257.566 220.342 256.986C221.674 256.406 222.746 255.535 223.557 254.375C224.368 253.157 224.773 251.503 224.773 249.415C224.773 248.544 224.686 247.674 224.513 246.804C224.397 245.934 224.223 245.063 223.991 244.193H224.165C224.513 243.671 224.773 242.917 224.947 241.93C225.179 240.886 225.324 239.784 225.382 238.623C225.439 237.463 225.468 236.361 225.468 235.316C225.468 234.214 225.468 233.344 225.468 232.706C225.468 231.081 225.439 229.341 225.382 227.484C225.324 225.57 225.063 223.858 224.6 222.35C224.484 221.944 224.339 221.566 224.165 221.218C224.049 220.812 223.991 220.377 223.991 219.913C223.991 218.579 224.223 217.273 224.686 215.997C225.15 214.662 225.382 213.328 225.382 211.994C225.382 211.472 225.324 211.094 225.208 210.862C225.15 210.572 225.034 210.34 224.86 210.166C224.744 209.934 224.629 209.731 224.513 209.557C224.397 209.325 224.31 209.035 224.252 208.687C224.657 208.049 224.976 207.381 225.208 206.685C225.497 205.931 225.642 205.177 225.642 204.422C225.642 203.726 225.497 203.146 225.208 202.682C224.918 202.16 224.6 201.696 224.252 201.29C223.904 200.825 223.557 200.361 223.209 199.897C222.92 199.433 222.775 198.911 222.775 198.331C221.964 198.331 220.921 198.331 219.647 198.331C218.373 198.273 216.983 198.186 215.477 198.07C213.971 197.954 212.465 197.751 210.958 197.46C209.452 197.17 208.091 196.793 206.875 196.329C205.658 195.807 204.645 195.169 203.834 194.415C203.081 193.602 202.704 192.616 202.704 191.456C202.704 190.643 203.023 189.889 203.66 189.193C204.355 188.439 205.166 187.801 206.093 187.278C207.078 186.756 208.091 186.35 209.134 186.06C210.234 185.77 211.161 185.625 211.914 185.625C212.725 185.625 213.536 185.654 214.347 185.712C215.216 185.77 216.056 185.799 216.867 185.799C217.736 185.799 218.778 185.741 219.995 185.625C221.269 185.509 222.254 185.19 222.949 184.668C223.122 184.494 223.325 184.059 223.557 183.362C223.789 182.608 223.991 181.796 224.165 180.926C224.339 179.997 224.484 179.127 224.6 178.315C224.715 177.445 224.773 176.864 224.773 176.574C224.773 175.24 224.657 173.964 224.426 172.745C224.252 171.527 224.165 170.251 224.165 168.916C224.165 167.002 224.397 165.232 224.86 163.608C225.324 161.983 226.25 160.475 227.641 159.082C229.262 157.458 230.797 155.891 232.245 154.383C233.752 152.816 235.286 151.424 236.85 150.206C238.472 148.987 240.21 147.943 242.064 147.073C243.975 146.203 246.176 145.593 248.667 145.245C250.405 145.013 252.142 144.752 253.88 144.462C255.676 144.172 257.471 144.027 259.267 144.027C260.252 144.027 261.555 144.172 263.177 144.462C264.857 144.694 266.623 145.071 268.477 145.593C270.388 146.057 272.3 146.638 274.211 147.334C276.123 148.03 277.86 148.842 279.424 149.771C280.988 150.641 282.263 151.627 283.247 152.729C284.232 153.774 284.724 154.905 284.724 156.123C286.52 156.181 287.823 156.791 288.634 157.951C289.503 159.111 290.111 160.504 290.459 162.128C290.806 163.753 291.038 165.464 291.154 167.263C291.27 169.003 291.531 170.512 291.936 171.788L292.11 172.223Z" fill="#FFD52F"/>
<path d="M370.307 238.101C370.307 239.958 370.104 241.727 369.699 243.41C369.293 245.034 368.83 246.659 368.309 248.283C367.787 249.85 367.237 251.474 366.658 253.157C366.136 254.781 365.731 256.464 365.441 258.204C364.92 261.105 363.877 263.513 362.313 265.427C360.749 267.342 358.867 268.85 356.666 269.953C354.465 271.113 352.003 271.954 349.281 272.476C346.616 273.056 343.865 273.492 341.026 273.782C338.188 274.072 335.379 274.275 332.598 274.391C329.876 274.507 327.356 274.71 325.039 275C324.171 274.362 323.447 273.666 322.867 272.911C322.288 272.157 321.738 271.432 321.216 270.736C320.695 270.098 320.116 269.546 319.479 269.082C318.842 268.676 318.002 268.473 316.959 268.473C316.612 268.473 316.322 268.009 316.09 267.081C315.916 266.094 315.743 265.021 315.569 263.861C315.395 262.642 315.192 261.569 314.961 260.641C314.787 259.655 314.526 259.161 314.179 259.161C312.846 259.161 311.775 258.871 310.964 258.291C310.211 257.711 309.603 256.986 309.139 256.116C308.734 255.187 308.444 254.172 308.27 253.07C308.155 251.967 308.097 250.894 308.097 249.85C308.097 249.037 307.923 248.283 307.575 247.587C307.228 246.891 306.851 246.224 306.446 245.585C306.04 244.889 305.664 244.193 305.316 243.497C304.969 242.801 304.795 242.075 304.795 241.321C304.795 240.451 304.824 239.378 304.882 238.101C304.998 236.767 305.085 235.403 305.143 234.011C305.258 232.619 305.345 231.255 305.403 229.921C305.519 228.586 305.577 227.484 305.577 226.614C305.577 225.57 305.693 224.699 305.925 224.003C306.214 223.307 306.533 222.698 306.88 222.176C307.228 221.653 307.517 221.189 307.749 220.783C308.039 220.377 308.184 219.913 308.184 219.391C308.184 218.695 308.01 218.114 307.662 217.65C307.373 217.186 307.228 216.722 307.228 216.258C307.228 215.62 307.431 215.011 307.836 214.43C308.242 213.792 308.531 213.154 308.705 212.516C309.342 209.963 309.661 207.439 309.661 204.945C309.661 204.422 309.632 203.929 309.574 203.465C309.574 202.943 309.545 202.45 309.487 201.986C308.155 200.883 306.678 200.187 305.056 199.897C303.434 199.549 301.812 199.317 300.19 199.201C298.568 199.027 297.004 198.824 295.498 198.592C293.992 198.36 292.718 197.751 291.675 196.764C290.806 195.952 290.024 195.053 289.329 194.066C288.634 193.022 287.708 192.326 286.549 191.978C285.738 191.688 285.043 191.311 284.464 190.847C283.942 190.324 283.682 189.599 283.682 188.671C283.682 187.278 284.087 186.234 284.898 185.538C285.767 184.784 286.781 184.204 287.939 183.797C289.098 183.333 290.285 182.956 291.502 182.666C292.776 182.318 293.847 181.825 294.716 181.187C295.585 180.549 296.628 180.229 297.844 180.229C298.366 180.229 298.858 180.258 299.321 180.316C299.843 180.316 300.364 180.316 300.885 180.316C302.333 180.316 303.521 180.084 304.448 179.62C305.432 179.098 306.185 178.431 306.707 177.619C307.286 176.748 307.662 175.762 307.836 174.66C308.068 173.557 308.184 172.368 308.184 171.092C308.184 169.235 308.068 167.437 307.836 165.696C307.604 163.956 307.489 162.157 307.489 160.301C307.489 158.154 307.778 156.181 308.357 154.383C308.937 152.584 310.037 150.931 311.659 149.422C312.007 149.132 312.383 148.755 312.789 148.291C313.194 147.827 313.628 147.392 314.092 146.986C314.555 146.522 315.019 146.145 315.482 145.854C316.003 145.564 316.525 145.419 317.046 145.419C317.393 145.419 317.683 145.506 317.915 145.68C318.204 145.796 318.494 145.97 318.784 146.203C320.058 147.479 320.869 148.436 321.216 149.074C321.622 149.655 321.825 150.351 321.825 151.163C321.825 151.627 321.796 152.149 321.738 152.729C321.738 153.252 321.738 153.948 321.738 154.818C321.738 156.675 321.969 158.502 322.433 160.301C322.896 162.099 323.128 163.637 323.128 164.913C323.128 166.015 322.896 167.089 322.433 168.133C322.027 169.119 321.825 170.163 321.825 171.266C321.825 172.078 321.998 172.832 322.346 173.528C322.751 174.167 323.186 174.805 323.649 175.443C324.171 176.081 324.634 176.748 325.039 177.445C325.445 178.083 325.648 178.837 325.648 179.707C326.227 180.113 327.53 180.491 329.557 180.839C331.585 181.129 333.844 181.39 336.335 181.622C338.825 181.796 341.345 181.941 343.894 182.057C346.442 182.173 348.556 182.231 350.236 182.231C351.742 182.231 352.901 182.347 353.712 182.579C354.523 182.811 355.189 183.072 355.71 183.362C356.289 183.594 356.811 183.855 357.274 184.146C357.737 184.436 358.346 184.61 359.099 184.668C360.025 184.784 360.807 185.045 361.445 185.451C362.14 185.799 362.487 186.524 362.487 187.627C362.487 189.019 362.111 190.121 361.358 190.934C360.663 191.746 359.765 192.355 358.664 192.761C357.622 193.167 356.492 193.428 355.276 193.544C354.059 193.602 352.93 193.631 351.887 193.631C350.207 193.631 348.528 193.573 346.848 193.457C345.168 193.341 343.488 193.283 341.808 193.283C339.028 193.283 336.508 193.544 334.249 194.066C331.99 194.589 330.021 195.459 328.341 196.677C326.719 197.896 325.445 199.52 324.518 201.551C323.649 203.523 323.215 206.018 323.215 209.035C323.215 211.994 323.389 214.895 323.736 217.737C324.142 220.58 324.344 223.481 324.344 226.44C324.344 229.225 324.373 231.458 324.431 233.141C324.547 234.823 324.895 236.245 325.474 237.405C326.227 239.088 326.835 241.002 327.298 243.149C327.762 245.295 328.341 247.326 329.036 249.241C329.789 251.155 330.803 252.78 332.077 254.114C333.409 255.39 335.35 256.028 337.899 256.028C338.767 256.028 339.926 255.912 341.374 255.68C342.822 255.448 344.27 255.1 345.718 254.636C347.166 254.114 348.412 253.476 349.454 252.722C350.497 251.909 351.018 250.923 351.018 249.763C351.018 248.776 350.729 247.79 350.149 246.804C349.57 245.759 349.281 244.657 349.281 243.497C349.281 242.685 349.454 241.988 349.802 241.408C350.207 240.77 350.7 240.219 351.279 239.755C351.916 239.233 352.553 238.797 353.19 238.449C353.885 238.043 354.552 237.695 355.189 237.405C356.231 236.071 357.477 234.968 358.925 234.098C360.431 233.17 362.024 232.706 363.704 232.706C364.862 232.706 365.963 232.909 367.005 233.315C368.106 233.721 369.119 234.243 370.046 234.881C370.22 235.926 370.307 236.999 370.307 238.101Z" fill="#FFD52F"/>
</svg>
